<?xml version="1.0" encoding="utf-8"?>
<!-- Generator: Adobe Illustrator 16.0.0, SVG Export Plug-In . SVG Version: 6.00 Build 0)  -->
<!DOCTYPE svg PUBLIC "-//W3C//DTD SVG 1.1//EN" "http://www.w3.org/Graphics/SVG/1.1/DTD/svg11.dtd">
<svg version="1.1" id="Layer_1" xmlns="http://www.w3.org/2000/svg" xmlns:xlink="http://www.w3.org/1999/xlink" x="0px" y="0px"
	 width="104.795px" height="70.205px" viewBox="0 0 104.795 70.205" enable-background="new 0 0 104.795 70.205"
	 xml:space="preserve">
<g>
	<path fill="#BC9A66" d="M80.98,4.336c-0.015-0.044-0.035-0.104-0.074-0.155c-0.086-0.12-0.226-0.174-0.376-0.174
		c-0.188,0-0.408,0.078-0.408,0.309c0,0.212,0.194,0.273,0.293,0.303c0.049,0.015,0.297,0.078,0.352,0.099
		c0.093,0.029,0.4,0.13,0.4,0.46c0,0.243-0.203,0.518-0.648,0.518c-0.184,0-0.317-0.047-0.408-0.105
		c-0.133-0.088-0.207-0.216-0.236-0.376l0.165-0.086c0.002,0.068,0.011,0.14,0.042,0.202c0.078,0.161,0.258,0.223,0.438,0.223
		c0.334,0,0.482-0.185,0.482-0.368c0-0.126-0.06-0.197-0.107-0.234c-0.078-0.065-0.18-0.091-0.407-0.149
		c-0.246-0.063-0.522-0.154-0.522-0.477c0-0.342,0.301-0.451,0.571-0.451c0.445,0,0.558,0.284,0.597,0.38L80.98,4.336z"/>
	<polygon fill="#BC9A66" points="83.157,5.65 82.997,5.65 83.01,4.179 82.441,5.65 82.329,5.65 81.751,4.179 81.771,5.65 
		81.61,5.65 81.61,3.915 81.806,3.915 82.393,5.388 82.952,3.915 83.157,3.915 	"/>
	<path fill="#BC9A66" d="M101.573,31.208c-0.451,0-0.828,0.33-0.904,0.76h-45.98h-0.841l0.001-1.173h23.199v-0.322h-49.11v0.322
		h23.199l0.002,1.173h-0.842H4.318c-0.077-0.43-0.453-0.76-0.904-0.76c-0.506,0-0.921,0.414-0.921,0.92
		c0,0.507,0.415,0.921,0.921,0.921c0.451,0,0.827-0.329,0.904-0.759h45.988h0.833l-0.002,1.171H27.938v0.322h49.11v-0.322H53.849
		l-0.001-1.171h0.833h45.988c0.076,0.43,0.453,0.759,0.904,0.759c0.506,0,0.92-0.414,0.92-0.921
		C102.493,31.622,102.079,31.208,101.573,31.208"/>
	<path fill="#BC9A66" d="M27.56,22.793l0.135-0.107c0.315-0.308,0.482-0.78,0.5-1.421V5.399c-0.018-0.63-0.185-1.104-0.5-1.42
		L27.56,3.871h1.379v18.922H27.56z M29.683,3.871h1.38l-0.136,0.108c-0.261,0.226-0.415,0.532-0.46,0.92l-0.04,0.5v16.649h5.41
		c0.415,0.045,0.875-0.117,1.38-0.486l0.203-0.149l0.108,0.095l-0.69,1.285h-7.155V3.871z"/>
	<path fill="#BC9A66" d="M50.545,24.309l-8.94-19.125l-0.203-0.38c-0.28-0.46-0.518-0.738-0.717-0.838l-0.189-0.095h1.42
		l9.022,19.517L50.545,24.309z M42.66,3.871h1.528l-0.081,0.108l-0.094,0.176c-0.046,0.099-0.064,0.217-0.055,0.352
		c-0.009,0.153,0.009,0.288,0.055,0.406l0.121,0.324l7.101,15.405l5.64-15.729l0.054-0.19l0.041-0.283
		c-0.009-0.081-0.027-0.162-0.055-0.243l-0.121-0.203l-0.096-0.122h1.691l-0.148,0.149c-0.172,0.171-0.334,0.419-0.487,0.743
		l-0.149,0.339l-6.289,17.393L42.66,3.871z"/>
	<path fill="#BC9A66" d="M65.083,5.103c-0.108-0.198-0.24-0.397-0.393-0.596c-0.197-0.253-0.4-0.437-0.609-0.555l-0.162-0.081h1.367
		l10.387,18.922h-1.461l0.055-0.095c0.081-0.117,0.113-0.238,0.095-0.365c0-0.107-0.024-0.225-0.075-0.352
		c-0.049-0.126-0.088-0.211-0.115-0.258l-4.26-7.628l-4.761,7.439c-0.188,0.289-0.274,0.537-0.257,0.744l0.041,0.243
		c0.027,0.082,0.066,0.145,0.121,0.189l0.095,0.081h-2.164l0.284-0.188c0.389-0.271,0.793-0.723,1.217-1.354l5.045-7.912
		L65.083,5.103z M66.029,3.871h1.542L67.49,3.966l-0.067,0.162l-0.055,0.271c-0.009,0.081,0.023,0.197,0.096,0.351l0.107,0.23
		l3.408,6.112l3.95-5.99c0.18-0.28,0.266-0.52,0.257-0.718c-0.01-0.081-0.027-0.162-0.055-0.243l-0.121-0.189L74.93,3.871h2.122
		l-0.188,0.108c-0.28,0.171-0.536,0.42-0.771,0.743L75.917,4.98l-4.504,6.871l5.342,9.711c0.207,0.405,0.465,0.739,0.771,1.001
		l0.27,0.229h-1.379L66.029,3.871z"/>
	<path fill="#BC9A66" d="M37,44.629c0-0.288-0.051-0.576-0.119-0.847c0.322-0.052,0.644-0.085,1-0.102l0.034-0.339
		c-0.39,0.033-0.763,0.085-1.136,0.152c-0.627-1.695-2.728-3.102-6.795-3.102c-7.999,0-12.643,4.187-12.643,6.763
		c0,1.135,0.915,1.948,2.83,1.948c4.508,0,8.524-2.475,10.219-6.524l-0.17-0.068C29,45.037,22.78,48.765,19.73,48.765
		c-1.424,0-2.102-0.678-2.102-1.628c0-2.372,4.271-6.523,12.151-6.523c4.051,0,6.016,1.355,6.525,2.966
		c-6.983,1.644-9.643,10.727-17.608,10.727c-0.848,0-1.576-0.084-1.576-0.084l-0.17,0.203c1.424,0.188,2.627,0.271,3.694,0.271
		c3.882,0,5.712-1.255,7.898-4.187c0.339-0.441,0.678-0.949,1.051-1.458c0.542,0.103,1.068,0.137,1.576,0.137
		C34.729,49.188,37,46.883,37,44.629 M30.796,48.951c-0.356,0-0.712-0.018-1.067-0.068c1.541-2.101,3.49-4.389,6.659-5.033
		c0.035,0.203,0.069,0.424,0.069,0.627C36.458,46.663,34.135,48.951,30.796,48.951"/>
	<path fill="#BC9A66" d="M87.79,52.237c-0.194-1.633-1.384-2.874-3.234-2.655c-0.858,0.103-1.868,0.514-2.981,1.344l0.153,0.137
		c1.018-0.771,1.911-1.149,2.669-1.239c1.532-0.182,2.456,0.852,2.622,2.249c0.279,2.356-1.553,5.748-6.232,6.303
		c-2.541,0.302-4.904-0.919-5.141-2.904c-0.107-0.909,0.525-2.47,1.501-3.609c2.293-2.678,5.677-6.373,7.627-8.209l-0.063-0.095
		c0,0-0.914,0.193-1.672,0.283c-1.113,1.412-2.725,3.071-4.396,4.941l-0.639,0.786c-0.115-0.004-0.223-0.006-0.301-0.006
		c-2.68-0.012-4.586,1.037-5.724,2.188c-1.427,0.941-2.687,1.814-3.495,2.268c-0.439,0.255-1.186,0.491-1.729,0.491
		c-0.39,0-0.678-0.118-0.678-0.474c0-0.424,0.729-1.355,1.645-2.255c2.254-0.339,3.813-1.525,3.813-2.066
		c0-0.17-0.136-0.271-0.457-0.271c-2.035,0-3.758,1.149-4.775,2.352c-2.256,1.495-3.98,2.715-4.598,2.715
		c-0.17,0-0.255-0.084-0.255-0.271c0-1.017,3.949-2.763,3.949-4.389c0-0.509-0.153-1.018-0.153-1.525
		c0-0.069,0.034-0.153,0.137-0.204c0.271-0.119,0.813-0.474,0.813-0.847c0-0.204-0.152-0.306-0.355-0.306
		c-0.355,0-0.83,0.321-0.83,1.018v0.321c-0.332,0.415-1.364,1.478-4.307,3.425V51.73c-2.305,1.524-4.068,2.778-4.695,2.778
		c-0.168,0-0.254-0.084-0.254-0.271c0-1.017,3.949-2.763,3.949-4.389c0-0.509-0.152-1.018-0.152-1.525
		c0-0.069,0.033-0.153,0.136-0.204c0.271-0.119,0.813-0.474,0.813-0.847c0-0.204-0.152-0.306-0.356-0.306
		c-0.356,0-0.83,0.321-0.83,1.018v0.321c-0.331,0.415-1.364,1.478-4.306,3.425V51.73c-1.44,0.949-2.711,1.83-3.526,2.287
		c-0.44,0.255-1.186,0.491-1.728,0.491c-0.39,0-0.677-0.118-0.677-0.474c0-0.424,0.728-1.355,1.643-2.255
		c2.254-0.339,3.813-1.525,3.813-2.066c0-0.17-0.136-0.271-0.457-0.271c-1.812,0-3.375,0.912-4.414,1.96
		c-0.885,0.618-1.818,1.681-4.062,1.899c3.133-3.886,3.784-8.272,9.927-10.673c0.161-0.056,0.322-0.113,0.485-0.156
		c0.109-0.03,0.22-0.055,0.33-0.07c0.054-0.005,0.108-0.01,0.162-0.009c0.037,0,0.082,0.009,0.107,0.015
		c-0.002,0.004-0.001,0.005-0.003,0.009c-0.01,0.021-0.024,0.044-0.042,0.066c-0.035,0.044-0.076,0.087-0.119,0.129
		c-0.086,0.083-0.179,0.161-0.273,0.237c-0.19,0.153-0.387,0.301-0.588,0.44l0.01,0.016c0.213-0.122,0.424-0.249,0.629-0.388
		c0.101-0.069,0.201-0.143,0.298-0.223c0.048-0.04,0.095-0.083,0.14-0.132c0.022-0.025,0.043-0.053,0.063-0.086
		c0.016-0.029,0.046-0.084,0.009-0.155l-0.005-0.01l-0.008-0.005c-0.09-0.057-0.143-0.051-0.209-0.061
		c-0.063-0.004-0.125-0.001-0.187,0.002c-0.12,0.012-0.239,0.03-0.354,0.061c-0.232,0.052-0.454,0.132-0.672,0.221
		c-0.01,0.004-0.018,0.009-0.027,0.013c-4.883,1.794-6.635,5.31-9.99,9.429l-0.896,1.108c-0.147-0.121-0.327-0.389-0.382-0.604
		l0.926-0.664c-0.026-0.271-0.205-0.314-0.407-0.294c-0.531,0.052-0.744,0.432-0.726,0.847c-1.04,0.694-1.942,1.301-2.57,1.653
		c-0.441,0.255-1.186,0.491-1.729,0.491c-0.389,0-0.677-0.118-0.677-0.474c0-0.424,0.728-1.355,1.644-2.255
		c2.253-0.339,3.813-1.525,3.813-2.066c0-0.17-0.137-0.271-0.458-0.271c-1.649,0-3.093,0.755-4.123,1.68
		c-2.272,1.502-5.173,3.387-5.777,3.387c-0.169,0-0.254-0.084-0.254-0.271c0-1.017,3.948-2.763,3.948-4.389
		c0-0.509-0.152-1.018-0.152-1.525c0-0.069,0.034-0.153,0.136-0.204c0.27-0.119,0.813-0.474,0.813-0.847
		c0-0.204-0.152-0.306-0.356-0.306c-0.356,0-0.83,0.321-0.83,1.018v0.321c-0.339,0.424-1.407,1.524-4.508,3.559l0.118,0.102
		c2.899-1.897,4.034-3.05,4.407-3.49c0.033,0.321,0.101,0.609,0.101,0.729c0,0.779-4.202,3.118-4.202,4.762
		c0,0.525,0.203,0.746,0.559,0.746c0.775,0,3.337-1.652,5.477-3.065c-0.706,0.785-1.119,1.609-1.119,2.167
		c0,0.645,0.525,0.898,1.186,0.898c0.644,0,1.441-0.237,2.05-0.56c0.711-0.38,1.563-0.969,2.522-1.618
		c0.052,0.266,0.189,0.527,0.417,0.714c-2.36,2.814-5.054,5.442-9.264,5.922c-0.059,0.004-0.114,0.011-0.175,0.014
		c-0.156,0.007-0.319,0.024-0.482,0.026c-0.165,0.006-0.331,0.013-0.495,0.003c-0.084,0-0.162-0.014-0.243-0.021
		c-0.075-0.012-0.142-0.023-0.21-0.063c-0.142-0.075-0.189-0.152-0.098-0.27c0.085-0.111,0.212-0.199,0.332-0.274
		c0.121-0.074,0.241-0.14,0.354-0.196c0.454-0.225,0.776-0.335,0.776-0.335l-0.007-0.021c0,0-0.33,0.083-0.807,0.272
		c-0.119,0.048-0.247,0.103-0.378,0.174c-0.131,0.072-0.269,0.15-0.389,0.287c-0.056,0.063-0.117,0.176-0.078,0.298
		c0.04,0.115,0.128,0.175,0.205,0.224c0.074,0.052,0.174,0.081,0.265,0.099c0.086,0.014,0.175,0.033,0.261,0.037
		c0.175,0.02,0.347,0.021,0.517,0.02c0.171,0.007,0.335-0.021,0.496-0.03c0.09-0.005,0.171-0.021,0.256-0.036
		c0.081-0.006,0.162-0.004,0.243-0.012c3.373-0.33,6.381-2.14,8.996-4.643c0.419-0.415,0.79-0.811,1.14-1.235
		c1.846-0.181,2.842-0.712,3.474-1.196c-0.388,0.57-0.608,1.117-0.608,1.522c0,0.645,0.525,0.898,1.186,0.898
		c0.644,0,1.441-0.237,2.05-0.56c0.913-0.489,2.066-1.324,3.375-2.188v0.001c2.898-1.897,4.033-3.05,4.406-3.49
		c0.033,0.321,0.102,0.609,0.102,0.729c0,0.779-4.202,3.118-4.202,4.762c0,0.525,0.203,0.746,0.56,0.746
		c0.859,0,2.646-1.296,4.83-2.747l0.002,0.001c2.897-1.897,4.032-3.05,4.405-3.49c0.034,0.321,0.101,0.609,0.101,0.729
		c0,0.779-4.201,3.118-4.201,4.762c0,0.525,0.203,0.746,0.559,0.746c0.818,0,2.479-1.175,4.52-2.538
		c-0.44,0.611-0.688,1.206-0.688,1.64c0,0.645,0.526,0.898,1.187,0.898c0.645,0,1.441-0.237,2.051-0.56
		c0.83-0.445,1.865-1.178,3.027-1.956c-0.568,0.703-0.858,1.399-0.861,1.878c-0.002,0.39,0.185,0.627,0.541,0.629
		c0.978,0.004,3.195-1.398,4.662-2.448c-0.556,1.026-0.698,2.088-0.592,2.979c0.267,2.256,2.422,3.74,5.67,3.354
		C86.167,57.976,88.079,54.677,87.79,52.237 M71.077,49.577c0.203,0,0.287,0.052,0.287,0.153c0,0.439-1.711,1.644-3.507,1.915
		C68.993,50.577,70.365,49.577,71.077,49.577 M43.818,49.577c0.204,0,0.288,0.052,0.288,0.153c0,0.439-1.712,1.644-3.508,1.915
		C41.734,50.577,43.106,49.577,43.818,49.577 M54.362,49.73c0,0.439-1.712,1.644-3.508,1.915c1.135-1.068,2.508-2.068,3.22-2.068
		C54.277,49.577,54.362,49.629,54.362,49.73 M71.445,54.519c-0.118-0.001-0.187-0.052-0.187-0.153
		c0.005-0.83,3.884-4.661,6.291-4.651c0.132,0,0.236,0.002,0.33,0.004l-1.637,2.013c-0.031,0.044-0.055,0.089-0.084,0.134
		C74.656,52.957,72.349,54.522,71.445,54.519"/>
	<path fill="#BC9A66" d="M21.997,64.444c0.01,0,0.02-0.007,0.02-0.023v-0.069c0-0.514,0-0.57-0.007-0.677
		c-0.007-0.096-0.033-0.151-0.142-0.175c-0.027-0.004-0.077-0.007-0.116-0.01c-0.047,0-0.063-0.021-0.063-0.034
		c0-0.02,0.016-0.032,0.066-0.032c0.192,0,0.49,0.011,0.524,0.011c0.03,0,0.41-0.011,0.553-0.011c0.049,0,0.066,0.013,0.066,0.032
		c0,0.017-0.017,0.034-0.049,0.034c-0.057,0.006-0.077,0.006-0.116,0.013c-0.087,0.014-0.113,0.069-0.123,0.175
		c-0.007,0.107-0.007,0.193-0.007,0.706v0.584c0,0.314,0,0.56,0.017,0.698c0.009,0.11,0.036,0.166,0.135,0.182
		c0.047,0.008,0.113,0.011,0.146,0.015c0.04,0,0.057,0.016,0.057,0.033c0,0.022-0.027,0.032-0.067,0.032
		c-0.228,0-0.563-0.01-0.622-0.01c-0.054,0-0.312,0.01-0.474,0.01c-0.06,0-0.073-0.016-0.073-0.035c0-0.018,0.02-0.03,0.063-0.03
		c0.033-0.004,0.073-0.007,0.102-0.015c0.08-0.016,0.1-0.078,0.11-0.185c0.013-0.139,0.02-0.348,0.02-0.663v-0.268
		c0-0.014-0.01-0.021-0.02-0.021h-1.034c-0.01,0-0.02,0.004-0.02,0.021v0.344c0,0.316,0.004,0.451,0.017,0.594
		c0.01,0.097,0.039,0.159,0.139,0.175c0.07,0.011,0.103,0.014,0.139,0.018c0.037,0,0.063,0.01,0.063,0.033
		c0,0.017-0.016,0.032-0.066,0.032c-0.189,0-0.58-0.01-0.613-0.01c-0.029,0-0.377,0.01-0.483,0.01c-0.037,0-0.074-0.006-0.074-0.029
		s0.014-0.036,0.057-0.036c0.039-0.004,0.059-0.007,0.103-0.015c0.079-0.01,0.109-0.096,0.116-0.194
		c0.01-0.14,0.016-0.371,0.016-0.686v-0.576c0-0.515-0.003-0.591-0.01-0.696c-0.006-0.116-0.043-0.179-0.159-0.195
		c-0.04-0.007-0.056-0.007-0.093-0.01c-0.059-0.004-0.066-0.021-0.066-0.037c0-0.023,0.036-0.029,0.073-0.029
		c0.192,0,0.447,0.011,0.523,0.011c0.126,0,0.404-0.011,0.547-0.011c0.059,0,0.069,0.013,0.069,0.032
		c0,0.017-0.019,0.034-0.059,0.034c-0.04,0.003-0.083,0.006-0.116,0.013c-0.089,0.021-0.106,0.096-0.113,0.192
		c-0.01,0.105-0.01,0.242-0.01,0.656v0.069c0,0.017,0.01,0.023,0.02,0.023H21.997z"/>
	<path fill="#BC9A66" d="M24.892,64.686c0-0.662,0.444-1.308,1.418-1.308c0.842,0,1.368,0.563,1.368,1.234
		c0,0.772-0.523,1.362-1.391,1.362C25.31,65.975,24.892,65.272,24.892,64.686 M27.016,64.759c0-0.55-0.229-1.176-0.815-1.176
		c-0.305,0-0.646,0.169-0.646,0.953c0,0.626,0.262,1.227,0.831,1.227C26.591,65.763,27.016,65.673,27.016,64.759"/>
	<path fill="#BC9A66" d="M31.148,64.968c0,0.258,0,0.565,0.017,0.705c0.006,0.086,0.03,0.156,0.129,0.173
		c0.043,0.006,0.083,0.01,0.143,0.016c0.052,0.004,0.066,0.014,0.066,0.037c0,0.021-0.017,0.03-0.076,0.03
		c-0.226,0-0.547-0.01-0.6-0.01c-0.056,0-0.378,0.01-0.487,0.01c-0.053,0-0.076-0.007-0.076-0.034c0-0.022,0.026-0.033,0.066-0.033
		c0.033-0.003,0.069-0.006,0.106-0.013c0.073-0.013,0.096-0.086,0.106-0.182c0.013-0.14,0.02-0.378,0.02-0.699v-1.299
		c-0.129,0-0.335-0.003-0.5,0.007c-0.186,0.01-0.259,0.053-0.302,0.169c-0.016,0.036-0.023,0.056-0.029,0.076
		c-0.007,0.026-0.017,0.053-0.04,0.053c-0.03,0-0.03-0.026-0.027-0.066c0.013-0.136,0.05-0.314,0.073-0.44
		c0.007-0.049,0.016-0.083,0.036-0.083c0.024,0,0.037,0.01,0.113,0.026c0.06,0.014,0.242,0.023,0.368,0.023h1.441
		c0.103,0,0.162-0.007,0.209-0.013c0.053-0.011,0.079-0.021,0.102-0.021c0.03,0,0.033,0.021,0.033,0.104
		c0,0.046-0.02,0.354-0.023,0.437c-0.003,0.046-0.013,0.066-0.033,0.066c-0.026,0-0.033-0.021-0.036-0.06
		c-0.004-0.037-0.004-0.05-0.007-0.066c-0.013-0.104-0.063-0.183-0.258-0.195c-0.11-0.01-0.282-0.017-0.534-0.017V64.968z"/>
	<path fill="#BC9A66" d="M34.242,64.385c0-0.54-0.003-0.606-0.01-0.713c-0.006-0.096-0.036-0.151-0.119-0.172
		c-0.03-0.007-0.077-0.007-0.109-0.01c-0.044-0.004-0.06-0.017-0.06-0.037c0-0.02,0.02-0.03,0.073-0.03
		c0.189,0,0.347,0.011,0.493,0.011c0.07,0,0.882-0.003,0.934-0.003c0.067,0,0.146-0.008,0.18-0.014
		c0.023-0.007,0.039-0.014,0.052-0.014c0.017,0,0.02,0.014,0.02,0.03s-0.006,0.05-0.016,0.146c-0.01,0.066-0.017,0.183-0.026,0.355
		c0,0.025-0.014,0.046-0.034,0.046c-0.016,0-0.03-0.018-0.033-0.046c0-0.037-0.003-0.07-0.017-0.116
		c-0.016-0.077-0.059-0.12-0.218-0.133c-0.11-0.01-0.398-0.018-0.497-0.018c-0.02,0-0.027,0.011-0.027,0.034v0.729
		c0,0.023,0.004,0.04,0.027,0.04c0.093,0.004,0.361,0,0.48-0.003c0.163-0.008,0.206-0.018,0.242-0.077
		c0.02-0.029,0.03-0.042,0.047-0.042c0.02,0,0.02,0.02,0.02,0.039c0,0.032-0.017,0.152-0.027,0.281
		c-0.003,0.076-0.003,0.239-0.003,0.275c0,0.043-0.01,0.063-0.03,0.063c-0.024,0-0.03-0.022-0.036-0.053
		c-0.004-0.026-0.007-0.05-0.01-0.076c-0.014-0.096-0.06-0.152-0.222-0.163c-0.093-0.007-0.365-0.013-0.468-0.013
		c-0.016,0-0.02,0.017-0.02,0.043v0.229c0,0.111-0.003,0.308,0,0.434c0.004,0.232,0.05,0.284,0.418,0.284
		c0.086,0,0.215-0.003,0.308-0.039c0.093-0.037,0.132-0.109,0.162-0.262c0.007-0.039,0.02-0.06,0.04-0.06
		c0.026,0,0.03,0.032,0.03,0.072c0,0.13-0.036,0.382-0.053,0.444c-0.023,0.086-0.047,0.09-0.169,0.09
		c-0.457,0-0.706-0.021-1.054-0.021c-0.156,0-0.294,0.011-0.477,0.011c-0.059,0-0.079-0.011-0.079-0.034
		c0-0.017,0.016-0.032,0.066-0.032c0.04-0.004,0.073-0.007,0.1-0.014c0.092-0.014,0.106-0.14,0.112-0.349
		c0.007-0.132,0.01-0.328,0.01-0.532V64.385z"/>
	<path fill="#BC9A66" d="M38.799,64.971c0,0.335-0.01,0.573,0.046,0.643c0.047,0.063,0.11,0.079,0.385,0.079
		c0.182,0,0.288-0.003,0.381-0.053c0.079-0.036,0.136-0.122,0.172-0.278c0.01-0.036,0.016-0.063,0.043-0.063
		c0.023,0,0.027,0.017,0.027,0.063c0,0.076-0.037,0.392-0.07,0.487c-0.026,0.086-0.053,0.09-0.186,0.09
		c-0.457,0-0.765-0.02-1.116-0.02c-0.156,0-0.335,0.01-0.517,0.01c-0.046,0-0.073-0.007-0.073-0.037c0-0.021,0.02-0.03,0.067-0.03
		c0.039-0.003,0.076-0.006,0.112-0.013c0.12-0.021,0.123-0.08,0.133-0.344c0.006-0.134,0.01-0.332,0.01-0.537v-0.583
		c0-0.54-0.004-0.601-0.01-0.706c-0.007-0.093-0.03-0.149-0.113-0.172c-0.03-0.011-0.079-0.014-0.129-0.018
		c-0.037,0-0.07-0.006-0.07-0.033c0-0.025,0.033-0.032,0.1-0.032c0.189,0,0.361,0.01,0.49,0.01c0.03,0,0.441-0.01,0.56-0.01
		c0.06,0,0.08,0.01,0.08,0.029c0,0.03-0.034,0.036-0.08,0.036c-0.033,0.004-0.066,0.004-0.113,0.015
		c-0.089,0.016-0.112,0.079-0.119,0.194c-0.007,0.106-0.01,0.172-0.01,0.72V64.971z"/>
	<path fill="#BC9A66" d="M41.864,65.882c-0.056-0.022-0.073-0.065-0.073-0.133c0-0.269,0.01-0.395,0.02-0.487
		c0.007-0.059,0.02-0.079,0.04-0.079c0.023,0,0.026,0.029,0.029,0.057c0.004,0.032,0.007,0.063,0.017,0.103
		c0.057,0.272,0.305,0.427,0.563,0.427c0.315,0,0.411-0.162,0.411-0.305c0-0.138-0.027-0.254-0.308-0.447l-0.205-0.142
		c-0.404-0.285-0.517-0.517-0.517-0.809c0-0.382,0.315-0.688,0.845-0.688c0.142,0,0.242,0.006,0.38,0.032
		c0.054,0.01,0.11,0.023,0.163,0.04c0.033,0.01,0.043,0.02,0.043,0.046c-0.006,0.105-0.013,0.173-0.013,0.468
		c0,0.06-0.01,0.082-0.037,0.082c-0.016,0-0.03-0.01-0.036-0.062c-0.004-0.034-0.014-0.116-0.06-0.192
		c-0.063-0.107-0.215-0.219-0.454-0.219c-0.272,0-0.371,0.151-0.371,0.305c0,0.112,0.04,0.242,0.265,0.394l0.169,0.112
		c0.464,0.309,0.61,0.514,0.61,0.848c0,0.229-0.103,0.454-0.351,0.601c-0.192,0.116-0.404,0.143-0.577,0.143
		C42.168,65.975,41.993,65.942,41.864,65.882"/>
	<path fill="#BC9A66" d="M48.308,64.571c0.16-0.2,0.32-0.294,0.407-0.366c0.04-0.034,0.027-0.055,0-0.087
		c-0.047-0.061-0.114-0.199-0.114-0.354c0-0.146,0.013-0.28,0.154-0.479c0.133-0.193,0.286-0.307,0.506-0.427
		c0.16-0.087,0.286-0.112,0.359-0.112c0.281,0,0.414,0.133,0.414,0.272c0,0.054-0.013,0.08-0.054,0.133
		c-0.039,0.054-0.133,0.128-0.166,0.154c-0.027,0.026-0.066,0.013-0.074-0.014c-0.06-0.246-0.273-0.273-0.393-0.273
		c-0.1,0-0.199,0.054-0.259,0.12c-0.073,0.08-0.114,0.219-0.114,0.339c0,0.447,0.28,0.527,0.52,0.567
		c0.027,0.006,0.027,0.027-0.007,0.073c-0.026,0.04-0.06,0.08-0.12,0.08l-0.206,0.007c-0.093,0.006-0.253,0.02-0.38,0.126
		c-0.18,0.146-0.239,0.446-0.239,0.62c0,0.759,0.619,1.019,1.105,1.019c0.294,0,0.527-0.053,0.74-0.26
		c0.179-0.166,0.26-0.406,0.26-0.692c0-0.24-0.067-0.433-0.193-0.526c-0.054-0.04-0.12-0.054-0.201-0.054
		c-0.312,0-0.412,0.206-0.412,0.366c0,0.133,0.046,0.214,0.1,0.26c0.026,0.021,0.039,0.054,0.026,0.08
		c-0.013,0.033-0.08,0.094-0.133,0.127c-0.067,0.033-0.154,0.033-0.227-0.021c-0.073-0.052-0.107-0.153-0.107-0.246
		c0-0.08,0.054-0.313,0.374-0.553c0.259-0.193,0.513-0.246,0.82-0.246c0.166,0,0.226,0.006,0.352,0.013
		c0.101,0.007,0.213,0.013,0.333,0.013c0.214,0,0.367-0.086,0.367-0.226c0-0.127-0.054-0.207-0.1-0.24
		c-0.027-0.025-0.04-0.066-0.014-0.12c0.027-0.06,0.067-0.106,0.12-0.14c0.067-0.046,0.141-0.046,0.2-0.013
		c0.06,0.025,0.127,0.12,0.127,0.232c0,0.213-0.166,0.399-0.306,0.514c-0.16,0.133-0.48,0.239-0.587,0.245
		c-0.08,0.008-0.159,0.021-0.2,0.021c-0.04-0.007-0.046,0.026-0.026,0.08c0.02,0.039,0.04,0.16,0.04,0.271
		c0,0.354-0.254,0.774-0.673,1.086c-0.393,0.295-0.806,0.334-0.986,0.334c-0.82,0-1.253-0.514-1.253-1.093
		C48.088,65.018,48.155,64.751,48.308,64.571"/>
	<path fill="#BC9A66" d="M55.928,64.384c0-0.514-0.006-0.579-0.01-0.686c-0.006-0.136-0.046-0.178-0.126-0.195
		c-0.05-0.01-0.102-0.01-0.132-0.013c-0.04-0.004-0.06-0.017-0.06-0.037c0-0.02,0.022-0.029,0.072-0.029
		c0.143,0,0.461,0.01,0.508,0.01c0.063,0,0.381-0.01,0.532-0.01c0.312,0,0.531,0.029,0.677,0.112
		c0.158,0.086,0.301,0.255,0.301,0.507c0,0.278-0.158,0.49-0.444,0.666c0.202,0.291,0.444,0.646,0.647,0.878
		c0.174,0.195,0.254,0.251,0.346,0.266c0.037,0.006,0.058,0.006,0.084,0.01c0.037,0,0.057,0.013,0.057,0.033
		c0,0.028-0.033,0.033-0.066,0.033h-0.299c-0.341,0-0.486-0.033-0.603-0.109c-0.106-0.063-0.212-0.206-0.341-0.415
		c-0.153-0.251-0.229-0.387-0.288-0.476c-0.007-0.011-0.023-0.021-0.04-0.021h-0.219c-0.017,0-0.026,0.006-0.026,0.026v0.169
		c0,0.262,0,0.417,0.017,0.557c0.006,0.086,0.029,0.159,0.129,0.182c0.047,0.014,0.082,0.014,0.149,0.021
		c0.054,0.003,0.06,0.016,0.06,0.036c0,0.02-0.023,0.03-0.069,0.03c-0.222,0-0.583-0.011-0.607-0.011
		c-0.039,0-0.36,0.011-0.473,0.011c-0.05,0-0.067-0.011-0.067-0.033c0-0.023,0.024-0.033,0.061-0.033
		c0.033-0.004,0.076-0.007,0.113-0.014c0.065-0.017,0.092-0.076,0.103-0.188c0.013-0.14,0.016-0.372,0.016-0.693V64.384z
		 M56.498,64.606c0,0.026,0.01,0.04,0.03,0.05c0.062,0.033,0.162,0.043,0.255,0.043c0.089,0,0.155-0.013,0.209-0.053
		c0.069-0.054,0.129-0.196,0.129-0.418c0-0.471-0.3-0.593-0.472-0.593c-0.053,0-0.108,0.004-0.131,0.014
		c-0.015,0.007-0.021,0.009-0.021,0.036V64.606z"/>
	<path fill="#BC9A66" d="M60.396,64.385c0-0.54-0.003-0.606-0.01-0.713c-0.006-0.096-0.036-0.151-0.119-0.172
		c-0.029-0.007-0.076-0.007-0.109-0.01c-0.043-0.004-0.06-0.017-0.06-0.037c0-0.02,0.021-0.03,0.073-0.03
		c0.189,0,0.348,0.011,0.492,0.011c0.07,0,0.883-0.003,0.936-0.003c0.066,0,0.145-0.008,0.18-0.014
		c0.021-0.007,0.039-0.014,0.051-0.014c0.018,0,0.021,0.014,0.021,0.03s-0.006,0.05-0.016,0.146
		c-0.011,0.066-0.017,0.183-0.027,0.355c0,0.025-0.013,0.046-0.032,0.046c-0.017,0-0.031-0.018-0.033-0.046
		c0-0.037-0.004-0.07-0.018-0.116c-0.016-0.077-0.059-0.12-0.218-0.133c-0.11-0.01-0.397-0.018-0.497-0.018
		c-0.02,0-0.027,0.011-0.027,0.034v0.729c0,0.023,0.004,0.04,0.027,0.04c0.093,0.004,0.361,0,0.48-0.003
		c0.162-0.008,0.205-0.018,0.242-0.077c0.02-0.029,0.029-0.042,0.047-0.042c0.02,0,0.02,0.02,0.02,0.039
		c0,0.032-0.018,0.152-0.027,0.281c-0.003,0.076-0.003,0.239-0.003,0.275c0,0.043-0.01,0.063-0.03,0.063
		c-0.023,0-0.029-0.022-0.035-0.053c-0.004-0.026-0.008-0.05-0.01-0.076c-0.015-0.096-0.061-0.152-0.223-0.163
		c-0.093-0.007-0.365-0.013-0.468-0.013c-0.017,0-0.021,0.017-0.021,0.043v0.229c0,0.111-0.003,0.308,0,0.434
		c0.004,0.232,0.051,0.284,0.418,0.284c0.086,0,0.215-0.003,0.309-0.039c0.092-0.037,0.132-0.109,0.162-0.262
		c0.007-0.039,0.02-0.06,0.039-0.06c0.026,0,0.031,0.032,0.031,0.072c0,0.13-0.037,0.382-0.054,0.444
		c-0.022,0.086-0.047,0.09-0.169,0.09c-0.457,0-0.706-0.021-1.055-0.021c-0.155,0-0.293,0.011-0.477,0.011
		c-0.059,0-0.078-0.011-0.078-0.034c0-0.017,0.016-0.032,0.065-0.032c0.04-0.004,0.073-0.007,0.101-0.014
		c0.092-0.014,0.105-0.14,0.111-0.349c0.007-0.132,0.01-0.328,0.01-0.532V64.385z"/>
	<path fill="#BC9A66" d="M64.053,65.882c-0.056-0.022-0.073-0.065-0.073-0.133c0-0.269,0.01-0.395,0.021-0.487
		c0.007-0.059,0.021-0.079,0.04-0.079c0.023,0,0.025,0.029,0.029,0.057c0.004,0.032,0.006,0.063,0.017,0.103
		c0.058,0.272,0.305,0.427,0.563,0.427c0.314,0,0.41-0.162,0.41-0.305c0-0.138-0.025-0.254-0.308-0.447l-0.205-0.142
		c-0.403-0.285-0.517-0.517-0.517-0.809c0-0.382,0.314-0.688,0.845-0.688c0.142,0,0.241,0.006,0.38,0.032
		c0.055,0.01,0.109,0.023,0.163,0.04c0.032,0.01,0.043,0.02,0.043,0.046c-0.006,0.105-0.013,0.173-0.013,0.468
		c0,0.06-0.01,0.082-0.037,0.082c-0.016,0-0.03-0.01-0.036-0.062c-0.004-0.034-0.015-0.116-0.06-0.192
		c-0.063-0.107-0.216-0.219-0.455-0.219c-0.271,0-0.369,0.151-0.369,0.305c0,0.112,0.039,0.242,0.264,0.394l0.169,0.112
		c0.464,0.309,0.61,0.514,0.61,0.848c0,0.229-0.104,0.454-0.352,0.601c-0.191,0.116-0.404,0.143-0.576,0.143
		C64.358,65.975,64.182,65.942,64.053,65.882"/>
	<path fill="#BC9A66" d="M67.57,64.686c0-0.662,0.444-1.308,1.418-1.308c0.843,0,1.368,0.563,1.368,1.234
		c0,0.772-0.523,1.362-1.391,1.362C67.988,65.975,67.57,65.272,67.57,64.686 M69.694,64.759c0-0.55-0.229-1.176-0.814-1.176
		c-0.306,0-0.646,0.169-0.646,0.953c0,0.626,0.262,1.227,0.831,1.227C69.271,65.763,69.694,65.673,69.694,64.759"/>
	<path fill="#BC9A66" d="M72.8,64.384c0-0.514-0.006-0.579-0.01-0.686c-0.006-0.136-0.046-0.178-0.126-0.195
		c-0.049-0.01-0.102-0.01-0.132-0.013c-0.04-0.004-0.061-0.017-0.061-0.037c0-0.02,0.024-0.029,0.074-0.029
		c0.143,0,0.461,0.01,0.506,0.01c0.063,0,0.381-0.01,0.533-0.01c0.313,0,0.531,0.029,0.676,0.112
		c0.16,0.086,0.302,0.255,0.302,0.507c0,0.278-0.158,0.49-0.443,0.666c0.202,0.291,0.443,0.646,0.646,0.878
		c0.176,0.195,0.256,0.251,0.348,0.266c0.037,0.006,0.057,0.006,0.084,0.01c0.036,0,0.057,0.013,0.057,0.033
		c0,0.028-0.035,0.033-0.066,0.033h-0.299c-0.342,0-0.487-0.033-0.604-0.109c-0.105-0.063-0.212-0.206-0.341-0.415
		c-0.152-0.251-0.229-0.387-0.288-0.476c-0.007-0.011-0.023-0.021-0.04-0.021h-0.219c-0.017,0-0.026,0.006-0.026,0.026v0.169
		c0,0.262,0,0.417,0.016,0.557c0.008,0.086,0.03,0.159,0.131,0.182c0.046,0.014,0.082,0.014,0.148,0.021
		c0.053,0.003,0.059,0.016,0.059,0.036c0,0.02-0.022,0.03-0.068,0.03c-0.223,0-0.583-0.011-0.607-0.011
		c-0.039,0-0.359,0.011-0.473,0.011c-0.05,0-0.066-0.011-0.066-0.033c0-0.023,0.023-0.033,0.06-0.033
		c0.034-0.004,0.075-0.007,0.112-0.014c0.066-0.017,0.094-0.076,0.104-0.188c0.014-0.14,0.016-0.372,0.016-0.693V64.384z
		 M73.37,64.606c0,0.026,0.01,0.04,0.03,0.05c0.063,0.033,0.162,0.043,0.255,0.043c0.089,0,0.156-0.013,0.209-0.053
		c0.068-0.054,0.129-0.196,0.129-0.418c0-0.471-0.299-0.593-0.471-0.593c-0.053,0-0.109,0.004-0.133,0.014
		c-0.012,0.007-0.02,0.009-0.02,0.036V64.606z"/>
	<path fill="#BC9A66" d="M78.062,64.968c0,0.258,0,0.565,0.016,0.705c0.007,0.086,0.029,0.156,0.13,0.173
		c0.043,0.006,0.082,0.01,0.142,0.016c0.054,0.004,0.066,0.014,0.066,0.037c0,0.021-0.016,0.03-0.076,0.03
		c-0.225,0-0.546-0.01-0.599-0.01c-0.058,0-0.378,0.01-0.487,0.01c-0.054,0-0.076-0.007-0.076-0.034
		c0-0.022,0.026-0.033,0.066-0.033c0.033-0.003,0.068-0.006,0.105-0.013c0.072-0.013,0.097-0.086,0.106-0.182
		c0.013-0.14,0.021-0.378,0.021-0.699v-1.299c-0.131,0-0.336-0.003-0.502,0.007c-0.185,0.01-0.258,0.053-0.301,0.169
		c-0.016,0.036-0.022,0.056-0.029,0.076c-0.006,0.026-0.017,0.053-0.041,0.053c-0.029,0-0.029-0.026-0.025-0.066
		c0.014-0.136,0.05-0.314,0.073-0.44c0.007-0.049,0.016-0.083,0.036-0.083c0.022,0,0.037,0.01,0.113,0.026
		c0.06,0.014,0.241,0.023,0.367,0.023h1.439c0.104,0,0.164-0.007,0.211-0.013c0.052-0.011,0.078-0.021,0.102-0.021
		c0.03,0,0.033,0.021,0.033,0.104c0,0.046-0.02,0.354-0.023,0.437c-0.002,0.046-0.013,0.066-0.033,0.066
		c-0.026,0-0.032-0.021-0.036-0.06c-0.003-0.037-0.003-0.05-0.007-0.066c-0.014-0.104-0.063-0.183-0.258-0.195
		c-0.109-0.01-0.281-0.017-0.533-0.017V64.968z"/>
	<path fill="#BC9A66" d="M80.943,65.882c-0.058-0.022-0.073-0.065-0.073-0.133c0-0.269,0.01-0.395,0.02-0.487
		c0.007-0.059,0.021-0.079,0.041-0.079c0.022,0,0.025,0.029,0.029,0.057c0.004,0.032,0.006,0.063,0.017,0.103
		c0.056,0.272,0.305,0.427,0.563,0.427c0.314,0,0.41-0.162,0.41-0.305c0-0.138-0.027-0.254-0.308-0.447l-0.206-0.142
		c-0.404-0.285-0.516-0.517-0.516-0.809c0-0.382,0.313-0.688,0.844-0.688c0.143,0,0.242,0.006,0.381,0.032
		c0.053,0.01,0.109,0.023,0.163,0.04c0.032,0.01,0.043,0.02,0.043,0.046c-0.007,0.105-0.013,0.173-0.013,0.468
		c0,0.06-0.011,0.082-0.037,0.082c-0.018,0-0.03-0.01-0.037-0.062c-0.004-0.034-0.014-0.116-0.059-0.192
		c-0.063-0.107-0.216-0.219-0.455-0.219c-0.271,0-0.371,0.151-0.371,0.305c0,0.112,0.041,0.242,0.266,0.394l0.169,0.112
		c0.464,0.309,0.61,0.514,0.61,0.848c0,0.229-0.104,0.454-0.353,0.601c-0.192,0.116-0.403,0.143-0.575,0.143
		C81.249,65.975,81.072,65.942,80.943,65.882"/>
</g>
</svg>
