<?xml version="1.0" encoding="utf-8"?>
<!-- Generator: Adobe Illustrator 16.0.0, SVG Export Plug-In . SVG Version: 6.00 Build 0)  -->
<!DOCTYPE svg PUBLIC "-//W3C//DTD SVG 1.1//EN" "http://www.w3.org/Graphics/SVG/1.1/DTD/svg11.dtd">
<svg version="1.1" id="Layer_1" xmlns="http://www.w3.org/2000/svg" xmlns:xlink="http://www.w3.org/1999/xlink" x="0px" y="0px"
	 width="98px" height="84px" viewBox="0 0 98 84" enable-background="new 0 0 98 84" xml:space="preserve">
<g>
	<g>
		<path fill="none" stroke="#9B8C7F" stroke-miterlimit="10" d="M80.63,22.86c0.621,1.17,0.494,2.079-0.496,4.03
			c-1.108,1.948-1.977,3.118-4.568,4.674c-4.078,2.467-8.031,4.935-11.986,7.274v31.308c-0.121,0.912-0.617,1.816-1.357,2.336
			c-0.988,0.654-1.852,1.17-2.717,1.693c-1.236,0.645-2.475,0.387-3.213-0.912c-0.121-0.389-0.248-1.039-0.248-1.301
			c-1.48-6.752-2.963-13.508-4.445-20.264c-0.867-1.428-1.607-2.856-2.346-4.157c-3.215,1.952-6.428,3.896-9.639,5.847
			c-0.863,0.391-1.604,0.648-2.343,0.906c-0.747,0.262-1.608,0.262-2.347,0.262c0.242,2.34,0.49,4.68,0.738,7.018
			c0.25,1.168-0.248,2.336-1.236,2.986c-0.37,0.262-0.74,0.389-0.988,0.52c-1.238,0.781-2.348,0.52-3.086-0.777
			c-0.62-1.174-1.238-2.338-1.857-3.377c-0.859-1.689-1.728-3.248-2.595-4.807c-0.987-1.691-1.849-3.25-2.716-4.809
			c-0.619-1.17-1.234-2.34-1.85-3.379c-0.619-1.298-0.373-2.468,0.865-3.117c0.365-0.258,0.739-0.517,0.984-0.651
			c0.988-0.646,2.225-0.516,3.089,0.262c1.853,1.429,3.584,2.856,5.312,4.157c0.496-0.65,0.99-1.301,1.483-1.816
			c0.619-0.651,1.11-1.17,1.856-1.824c3.336-1.944,6.543-3.896,9.756-5.84c-0.867-1.43-1.607-2.86-2.346-4.158
			c-4.821-4.808-9.637-9.482-14.457-14.162c-0.242-0.255-0.74-0.647-0.86-0.905c-0.743-1.301-0.373-2.602,0.86-3.38
			c0.988-0.649,1.856-1.17,2.724-1.688c0.739-0.39,1.728-0.39,2.595,0l25.691,15.59c4.074-2.468,8.027-4.936,11.982-7.275
			c2.594-1.563,4.074-1.816,6.176-1.816C79.147,21.305,80.015,21.693,80.63,22.86"/>
	</g>
</g>
<g>
	<g>
		<defs>
			<rect id="SVGID_1_" x="0.032" y="83" width="97.937" height="1"/>
		</defs>
		<use xlink:href="#SVGID_1_"  overflow="visible" fill="#9B8C7F"/>
		<clipPath id="SVGID_2_">
			<use xlink:href="#SVGID_1_"  overflow="visible"/>
		</clipPath>
		<line clip-path="url(#SVGID_2_)" fill="#9B8C7F" x1="0.031" y1="83.5" x2="97.968" y2="83.5"/>
	</g>
</g>
</svg>
